<svg xmlns="http://www.w3.org/2000/svg" viewBox="0 0 512 512" role="img" aria-labelledby="title">
  <title id="title">AIS USC</title>
  <circle cx="256" cy="256" r="248" fill="#000"/>
  <g fill="none" stroke-linecap="round" stroke-linejoin="round">
    <path d="M66 360 143 137 220 360" stroke="#ff5a14" stroke-width="17"/>
    <path d="M96 360 159 179" stroke="#ff5a14" stroke-width="17"/>
    <path d="M260 139h33c10 0 18 8 18 18v185c0 10-8 18-18 18h-33c-10 0-18-8-18-18V157c0-10 8-18 18-18Z" stroke="#fff" stroke-width="15"/>
    <path d="M423 181c0-37-35-49-70-43-33 6-54 25-55 53-1 35 33 46 68 52 41 7 75 18 73 62-2 40-37 61-76 60-43-1-72-28-72-69" stroke="#00ff38" stroke-width="14"/>
    <path d="M368 244c48 10 72 40 67 78" stroke="#00ff38" stroke-width="14"/>
  </g>
</svg>
